HIERARCHY
ROOT pelvis
{
  OFFSET 0 100 0
  CHANNELS 6 Xposition Yposition Zposition Zrotation Xrotation Yrotation
  JOINT pelvis_right_femur
  {
    OFFSET -10.78128 -3.44521 -0.5502486
    CHANNELS 3 Zrotation Xrotation Yrotation
    JOINT right_femur_tibia
    {
      OFFSET -0.8047443 -44.0398 -0.1307829
      CHANNELS 3 Zrotation Xrotation Yrotation
      JOINT right_tibia_foot
      {
        OFFSET 3.006224 -47.83518 -5
        CHANNELS 3 Zrotation Xrotation Yrotation
        End Site
        {
          OFFSET 0 -5 15
        }
      }
    }
  }
  JOINT pelvis_left_femur
  {
    OFFSET 10.78128 -3.44521 -0.5502486
    CHANNELS 3 Zrotation Xrotation Yrotation
    JOINT left_femur_tibia
    {
      OFFSET 0.8047443 -44.0398 -0.1307829
      CHANNELS 3 Zrotation Xrotation Yrotation
      JOINT left_tibia_foot
      {
        OFFSET -4.370144 -48.10324 -4.275266
        CHANNELS 3 Zrotation Xrotation Yrotation
        End Site
        {
          OFFSET 0 -5 15
        }
      }
    }
  }
  JOINT pelvis_spine1
  {
    OFFSET 0 6.468898 -3.129235
    CHANNELS 3 Zrotation Xrotation Yrotation
    JOINT spine1
    {
      OFFSET 0 23.15396 4.99043
      CHANNELS 3 Zrotation Xrotation Yrotation
      JOINT spine2
      {
        OFFSET 0 20.79997 -5.064912
        CHANNELS 3 Zrotation Xrotation Yrotation
        JOINT neck
        {
          OFFSET 0 14.38658 9.616178
          CHANNELS 3 Zrotation Xrotation Yrotation
          End Site
          {
            OFFSET 0 20 0
          }
        }
      }
      JOINT right_manubrium
      {
        OFFSET -5.722621 16.35077 3.967754
        CHANNELS 3 Zrotation Xrotation Yrotation
        JOINT right_clavicle
        {
          OFFSET -13.16364 1.694482 -4.693211
          CHANNELS 3 Zrotation Xrotation Yrotation
          JOINT right_humerus
          {
            OFFSET -28.5034 -0.3100689 -2.792744
            CHANNELS 3 Zrotation Xrotation Yrotation
            JOINT right_radius
            {
              OFFSET -25.15693 0.02248979 -1.271978
              CHANNELS 3 Zrotation Xrotation Yrotation
              End Site
              {
                OFFSET -15 0 0
              }
            }
          }
        }
      }
      JOINT left_manubrium
      {
        OFFSET 5.722621 16.35077 3.967754
        CHANNELS 3 Zrotation Xrotation Yrotation
        JOINT left_clavicle
        {
          OFFSET 13.16364 1.694482 -4.693211
          CHANNELS 3 Zrotation Xrotation Yrotation
          JOINT left_humerus
          {
            OFFSET 29.39168 -1.063119 -2.237045
            CHANNELS 3 Zrotation Xrotation Yrotation
            JOINT left_radius
            {
              OFFSET 24.59957 -0.9528479 0.9047498
              CHANNELS 3 Zrotation Xrotation Yrotation
              End Site
              {
                OFFSET 15 -0 -0
              }
            }
          }
        }
      }
    }
  }
}
MOTION
Frames: 9
Frame Time: 0.0416666666667
0 103.5113 0 0.4213387 -1.295084 -0.3670734 4.477226 -16.34439 10.3659 -0 42.29632 -0 -6.66536 -17.14963 -3.230038 -6.476831 8.468115 -22.33908 -0 7.052466 -0 12.78993 -13.57991 29.45333 -3.519098 -3.89595 4.84549 2.494125 11.16472 -7.9542 1.229973 21.42455 6.540211 3.419074 -23.79397 8.759748 7.830409 -20.48862 12.35304 84.35915 38.13759 -17.28694 -0 0 17.57037 -8.025232 9.00316 4.174787 6.062492 -20.04584 -1.738336 -92.49309 21.00778 20.61087 0 0 -13.11882 13.39137 15.56813 -2.572192
0.3229453 103.6494 1.500293 0.3806116 -1.324967 -0.6596789 4.301943 -17.13845 9.802029 -0 42.01903 -0 -6.793644 -16.27282 -3.37784 -6.327026 8.773208 -21.59649 -0 6.429773 -0 12.5376 -13.84819 28.66854 -3.510046 -3.680219 4.615562 2.515445 11.18477 -8.12446 1.098585 21.37988 6.635849 3.39376 -23.58442 8.641881 7.720496 -20.28335 12.36646 84.68857 38.19284 -17.59067 -0 0 16.95345 -8.724996 9.369755 4.564072 6.046033 -20.29584 -1.948443 -91.70402 20.71769 19.77803 0 0 -13.93467 13.30226 15.21791 -2.463747
0.6419712 103.4364 3.368496 0.3137698 -0.3379673 -0.8464053 4.561547 -20.58374 8.890344 -0 36.0644 -0 -6.45721 -14.54942 -3.045279 -6.413113 9.590497 -20.72287 -0 5.473712 -0 11.57203 -16.5106 27.48081 -3.576622 -3.323706 4.761184 2.674832 10.56474 -8.179175 1.232009 21.06076 6.748047 3.525179 -24.23668 8.867986 6.929857 -19.88178 11.92734 85.10876 36.9939 -18.23659 -0 0 16.52867 -8.605111 9.075294 4.370426 6.957158 -20.85523 -1.39658 -91.65195 20.57006 19.15257 0 0 -14.98951 13.70729 15.20612 -2.844636
0.9520757 102.939 5.608406 0.2188274 0.5361015 -0.9155819 4.842957 -23.53938 8.066701 -0 31.17816 -0 -6.309828 -12.72747 -2.713821 -6.457808 10.39725 -19.89736 -0 5.057018 -0 10.5186 -18.71394 26.26032 -3.57258 -3.025972 4.828475 2.802931 10.04635 -8.240198 1.326041 20.74695 6.841476 3.677462 -24.77872 9.001559 6.300821 -19.50027 11.55846 85.47579 36.03446 -18.81564 -0 0 16.10271 -8.513578 8.788377 4.16725 7.732095 -21.3248 -0.924223 -91.57386 20.32669 18.60694 0 0 -15.84693 14.0655 15.14439 -3.258453
1.244179 102.2033 8.300139 0.06220579 1.353453 -0.836494 5.114996 -26.45822 7.136613 -0 26.71196 -0 -6.326359 -10.46761 -2.45768 -6.406962 11.40222 -18.85348 -0 4.964836 -0 9.086785 -20.71799 24.61536 -3.479348 -2.693832 4.741872 2.935241 9.586184 -8.386814 1.341585 20.40272 6.967856 3.835723 -25.21872 9.031074 5.73422 -19.05564 11.24399 85.96527 35.22132 -19.55166 -0 0 15.42829 -8.65886 8.641825 4.102947 8.378224 -21.80656 -0.5852414 -91.27672 20.10566 17.9195 0 0 -16.94291 14.08243 14.95582 -3.319983
1.511631 101.2922 11.47857 -0.157269 2.065105 -0.606392 5.417084 -29.06125 6.252244 -0 22.85532 -0 -6.480445 -8.061974 -2.255796 -6.274425 12.47904 -17.74909 -0 5.414466 -0 7.379816 -22.30702 22.73764 -3.283335 -2.372944 4.547558 3.056531 9.214762 -8.575929 1.306178 20.04834 7.100479 3.996855 -25.55985 8.974716 5.270575 -18.59868 10.99605 86.49539 34.56402 -20.34592 -0 0 14.65587 -8.930722 8.591583 4.111754 8.870753 -22.24275 -0.3735757 -90.89386 19.90769 17.23429 0 0 -18.06407 13.83709 14.6808 -3.120467
1.748836 100.272 15.18753 -0.4489094 2.646753 -0.2333651 5.772953 -31.30734 5.42664 -0 19.52424 -0 -6.757873 -5.563749 -2.099477 -6.050103 13.59732 -16.56323 -0 6.572582 -0 5.399465 -23.3832 20.62187 -2.963322 -2.062162 4.254477 3.161791 8.945071 -8.798578 1.224961 19.68384 7.233429 4.159024 -25.78946 8.830456 4.897148 -18.12424 10.81382 87.0711 34.02199 -21.1918 -0 0 13.7936 -9.341492 8.638899 4.187308 9.21095 -22.64049 -0.3025464 -90.41707 19.66756 16.52484 0 0 -19.18809 13.39919 14.28591 -2.744277
1.953178 99.22279 19.45565 -0.8107116 3.056097 0.2560195 6.208636 -33.02341 4.724979 -0 16.78967 -0 -7.134274 -3.13748 -1.983707 -5.731308 14.65661 -15.33824 -0 8.642382 -0 3.220009 -23.78666 18.35744 -2.504685 -1.775804 3.889111 3.242704 8.797036 -9.032633 1.106569 19.3257 7.357049 4.314992 -25.90179 8.60608 4.619336 -17.65063 10.70443 87.66948 33.576 -22.04777 -0 0 12.89434 -9.869914 8.778459 4.318601 9.374011 -22.97789 -0.3844031 -89.89369 19.37731 15.84508 0 0 -20.22831 12.81182 13.76919 -2.228679
2.124304 98.23864 24.29796 -1.229695 3.242539 0.8152133 6.734298 -34.01854 4.191472 -0 14.6879 -0 -7.576491 -0.9521134 -1.91497 -5.313655 15.53405 -14.09359 -0 11.85605 -0 0.9366088 -23.35769 16.03972 -1.897738 -1.522705 3.483958 3.292031 8.790403 -9.257073 0.9559263 18.99658 7.464349 4.453735 -25.88843 8.308966 4.429181 -17.19259 10.67601 88.28227 33.19169 -22.88218 -0 0 11.98951 -10.5145 9.011705 4.508754 9.331464 -23.23988 -0.6362036 -89.35605 19.03368 15.23638 0 0 -21.12425 12.11145 13.12281 -1.594939
